<?xml version="1.0" encoding="utf-8"?>
<!-- Generator: Adobe Illustrator 23.0.3, SVG Export Plug-In . SVG Version: 6.00 Build 0)  -->
<svg version="1.1" id="Laag_1" xmlns="http://www.w3.org/2000/svg" xmlns:xlink="http://www.w3.org/1999/xlink" x="0px" y="0px"
	 viewBox="0 0 691.6 152" style="enable-background:new 0 0 691.6 152;" xml:space="preserve">
<style type="text/css">
	.st0{enable-background:new    ;}
	.st1{fill:#FFFFFF;}
	.st2{fill:none;stroke:#FFFFFF;stroke-width:6.499;stroke-miterlimit:10;}
	.st3{fill:none;stroke:#FFFFFF;stroke-width:4.391;stroke-miterlimit:10;stroke-dasharray:13.393,9.002;}
</style>
<g class="st0">
	<path class="st1" d="M246.3,97.4h-20.7v44.1h-29.1v-130c13.7-3,28.7-5.1,43.4-5.1c31.6,0,56.7,11.2,56.7,47.4
		c0,20.7-9.3,32.9-23.4,38.8l29.1,47.4l-32,4L246.3,97.4z M245.5,75.6c14.5,0,21.7-8.2,21.7-21.5c0-16.7-11-22.3-25.7-22.3
		c-5.3,0-10.7,0.8-16,1.9v41.8L245.5,75.6L245.5,75.6z"/>
</g>
<g class="st0">
	<path class="st1" d="M306.7,91.4c0-35.8,13.5-52.5,47.5-52.5s47.5,16.7,47.5,52.5s-13.5,52.5-47.5,52.5S306.7,127.1,306.7,91.4z
		 M373.8,91.4c0-18.8-2.9-30.2-19.6-30.2s-19.6,11.4-19.6,30.2s2.9,30.2,19.6,30.2S373.8,110.2,373.8,91.4z"/>
	<path class="st1" d="M489.7,143.7c-1.9-4.8-3.6-9.9-4.8-14.8c-5.5,9.3-14.1,15-29.3,15c-32.7,0-35.4-23-35.4-43.6V44.4l27.8-3.2
		v55.3c0,17.1,3.4,24.7,14.3,24.7c9.9,0,14.3-4,18.6-11.8v-65l27.8-3.2v62c0,11.6,0.2,23.8,2.7,35.2L489.7,143.7z"/>
</g>
<g class="st0">
	<path class="st1" d="M560,145.8c-18.6-10.5-21.3-31.2-21.3-50.2V61.7h-14.6V41.2h14.6V12.6l27.8-3.4v32h20.7l-2.5,20.5h-18.3v34.4
		c0,15.2,2.9,26.4,12.2,36.7L560,145.8z"/>
</g>
<g class="st0">
	<path class="st1" d="M644.3,143.9c-30.6,0-48.1-12.9-48.1-52.1c0-40.5,17.9-52.9,45.3-52.9c27,0,43.2,10.3,43.2,59.3l-59.7,6.3
		c1.7,12.2,7.4,16.9,19,16.9c10.5,0,19.8-2.1,29.5-7.8l8.4,19.2C670.9,140.2,659,143.9,644.3,143.9z M657.6,81.7
		c-0.4-14.8-5.9-20.5-16.2-20.5c-11.6,0-17.7,7.2-17.7,23V87L657.6,81.7z"/>
</g>
<g class="st0">
	<path class="st1" d="M5.6,52.6c0-29.4,10.1-43.1,35.8-43.1s35.8,13.7,35.8,43.1S67.1,95.7,41.4,95.7S5.6,82,5.6,52.6z M58.9,52.6
		c0-16.9-2.7-27.1-17.3-27.1c-15,0-17.7,10.2-17.7,27.1s2.7,27.1,17.7,27.1C56.2,79.8,58.9,69.5,58.9,52.6z"/>
	<path class="st1" d="M138.2,94.3l-20.6-37.6c-4-7.4-8.3-14.4-11.4-22.5c1.2,11.7,1.2,24.3,1.2,35.5v24.6H90V13.1l20.9-3.2
		l18.2,33.7c5.2,9.8,9.8,17.9,13.9,26.9c-1.5-10.8-2.1-22.6-2.1-37.7V11h17.4v83.3H138.2z"/>
</g>
<line class="st2" x1="158" y1="142.8" x2="10.3" y2="142.8"/>
<line class="st2" x1="158" y1="113.6" x2="10.3" y2="113.6"/>
<line class="st3" x1="158" y1="128.2" x2="10.3" y2="128.2"/>
</svg>
